<svg xmlns="http://www.w3.org/2000/svg" viewBox="0 0 70 82.42"><defs><style>.cls-1{fill:#fff;}</style></defs><g id="Layer_2" data-name="Layer 2"><g id="Layer_1-2" data-name="Layer 1"><path class="cls-1" d="M2.25,79.55H2a.08.08,0,0,0-.06,0,.11.11,0,0,0,0,.07v1.41l-.24,0H1.27A.87.87,0,0,1,1,81a.63.63,0,0,1-.26-.2.89.89,0,0,1-.18-.35A2,2,0,0,1,.45,80v-.66a2,2,0,0,1,.06-.54.9.9,0,0,1,.2-.35A.67.67,0,0,1,1,78.21a1.14,1.14,0,0,1,.33,0H2l.21,0h0s.06,0,.06,0V77.9a.08.08,0,0,0,0-.05l-.06,0-.37,0-.56,0a1.59,1.59,0,0,0-.48.07,1.14,1.14,0,0,0-.42.25,1.36,1.36,0,0,0-.3.47A2,2,0,0,0,0,79.3V80a2.12,2.12,0,0,0,.11.71,1.35,1.35,0,0,0,.29.47,1.06,1.06,0,0,0,.41.26,1.48,1.48,0,0,0,.46.08,4.63,4.63,0,0,0,.57,0l.41,0a.1.1,0,0,0,.09-.11V79.64a.11.11,0,0,0,0-.07l-.06,0"/><path class="cls-1" d="M4.86,79a.86.86,0,0,0-.33-.23,1.36,1.36,0,0,0-.47-.08,1.07,1.07,0,0,0-.81.31,1.2,1.2,0,0,0-.28.84v.44a1.55,1.55,0,0,0,.09.57,1,1,0,0,0,.25.36.9.9,0,0,0,.36.19,1.4,1.4,0,0,0,.41.06l.46,0c.14,0,.28,0,.42-.06s.07,0,.08,0a.14.14,0,0,0,0-.07v-.17a.08.08,0,0,0,0-.06H5l-.42,0-.46,0a.69.69,0,0,1-.51-.19.92.92,0,0,1-.17-.62v-.07H5c.07,0,.09,0,.09-.1v-.27a1.73,1.73,0,0,0-.06-.47A.9.9,0,0,0,4.86,79m-.16.88H3.4v0a.88.88,0,0,1,.17-.59.64.64,0,0,1,.49-.18.62.62,0,0,1,.48.17.88.88,0,0,1,.16.6Z"/><path class="cls-1" d="M7,78.71a1.2,1.2,0,0,0-.4.06,1.59,1.59,0,0,0-.39.17v-.1a.19.19,0,0,0,0-.07.15.15,0,0,0-.07,0H5.82a.11.11,0,0,0-.06,0,.09.09,0,0,0,0,.07v2.51a.11.11,0,0,0,0,.07.07.07,0,0,0,.06,0h.25a.07.07,0,0,0,.06,0,.11.11,0,0,0,0-.07V79.28a3.07,3.07,0,0,1,.34-.14,1.26,1.26,0,0,1,.33,0,.88.88,0,0,1,.24,0,.48.48,0,0,1,.17.1.75.75,0,0,1,.1.2,2.5,2.5,0,0,1,0,.32v1.61a.11.11,0,0,0,0,.07.09.09,0,0,0,.07,0H7.7a.09.09,0,0,0,.07,0,.11.11,0,0,0,0-.07V79.73A1.22,1.22,0,0,0,7.6,79,.78.78,0,0,0,7,78.71"/><path class="cls-1" d="M10.28,79a.89.89,0,0,0-.34-.23,1.36,1.36,0,0,0-.47-.08,1.07,1.07,0,0,0-.81.31,1.2,1.2,0,0,0-.28.84v.44a1.35,1.35,0,0,0,.1.57.9.9,0,0,0,.6.55,1.52,1.52,0,0,0,.42.06l.46,0c.14,0,.28,0,.42-.06l.08,0a.15.15,0,0,0,0-.07v-.17s0-.05,0-.06h-.08l-.41,0-.46,0A.66.66,0,0,1,9,80.92a.87.87,0,0,1-.18-.62v-.07h1.65c.06,0,.09,0,.09-.1v-.27a1.41,1.41,0,0,0-.07-.47.88.88,0,0,0-.2-.37m-.16.88H8.81v0A.88.88,0,0,1,9,79.27a.77.77,0,0,1,1,0,.94.94,0,0,1,.16.6Z"/><path class="cls-1" d="M12.25,78.71a1,1,0,0,0-.33.06,1.1,1.1,0,0,0-.36.18v-.11a.11.11,0,0,0,0-.07.11.11,0,0,0-.06,0h-.23a.15.15,0,0,0-.07,0,.09.09,0,0,0,0,.07v2.51a.11.11,0,0,0,0,.07.09.09,0,0,0,.07,0h.24a.11.11,0,0,0,.07,0,.1.1,0,0,0,0-.07V79.29a2.05,2.05,0,0,1,.35-.16,1.86,1.86,0,0,1,.33,0c.07,0,.11,0,.11-.09v-.2c0-.06,0-.09-.11-.09"/><path class="cls-1" d="M13.62,78.71a2.75,2.75,0,0,0-.43,0l-.34,0c-.06,0-.1,0-.1.1V79a.06.06,0,0,0,0,.06.11.11,0,0,0,.06,0h0l.33,0h.43a.53.53,0,0,1,.4.12.61.61,0,0,1,.12.43v.2h-.36a3,3,0,0,0-.56,0,.85.85,0,0,0-.36.15.63.63,0,0,0-.21.25,1.22,1.22,0,0,0-.06.35v.06a1,1,0,0,0,.07.38.64.64,0,0,0,.18.25.75.75,0,0,0,.25.13,1.53,1.53,0,0,0,.3,0,1.09,1.09,0,0,0,.4-.07,2,2,0,0,0,.36-.17v.11a.1.1,0,0,0,.1.1h.23a.11.11,0,0,0,.07,0,.08.08,0,0,0,0-.07V79.63a1,1,0,0,0-.22-.68,1,1,0,0,0-.73-.24m.52,2.22a1.55,1.55,0,0,1-.33.15,1.26,1.26,0,0,1-.33,0,.55.55,0,0,1-.34-.09.47.47,0,0,1-.11-.36v-.06a.69.69,0,0,1,0-.22.29.29,0,0,1,.12-.15.62.62,0,0,1,.23-.08,1.9,1.9,0,0,1,.37,0h.36Z"/><path class="cls-1" d="M15.64,77.75h-.26a.07.07,0,0,0-.06,0,.09.09,0,0,0,0,.07v3.5a.09.09,0,0,0,0,.07.07.07,0,0,0,.06,0h.26a.07.07,0,0,0,.06,0,.08.08,0,0,0,0-.07v-3.5a.08.08,0,0,0,0-.07.07.07,0,0,0-.06,0"/><path class="cls-1" d="M19.71,77.79h-1A1.23,1.23,0,0,0,18,78a.85.85,0,0,0-.26.71v1.89a.83.83,0,0,0,.26.7,1.23,1.23,0,0,0,.78.21h1s0,0,0,0,0,0,0,0v-.25s0-.06-.05-.06h-.95a1.39,1.39,0,0,1-.32,0,.31.31,0,0,1-.18-.09.38.38,0,0,1-.09-.15,1.66,1.66,0,0,1,0-.24v-.83h1.51a.1.1,0,0,0,.1-.1v-.19a.09.09,0,0,0,0-.06.09.09,0,0,0-.07,0H18.15v-.68a1.66,1.66,0,0,1,0-.24.35.35,0,0,1,.09-.16.38.38,0,0,1,.18-.09,1.47,1.47,0,0,1,.32,0h.95a.06.06,0,0,0,.05-.06v-.25s0,0,0,0,0,0,0,0"/><path class="cls-1" d="M21.58,78.71a1.25,1.25,0,0,0-.4.06,1.72,1.72,0,0,0-.38.17v-.1a.11.11,0,0,0,0-.07s0,0-.06,0h-.25a.15.15,0,0,0-.07,0,.14.14,0,0,0,0,.07v2.51a.19.19,0,0,0,0,.07.09.09,0,0,0,.07,0h.24a.09.09,0,0,0,.07,0,.11.11,0,0,0,0-.07V79.28a3.07,3.07,0,0,1,.34-.14,1.25,1.25,0,0,1,.32,0,.78.78,0,0,1,.24,0,.34.34,0,0,1,.27.3,1.39,1.39,0,0,1,0,.32v1.61a.1.1,0,0,0,0,.07.11.11,0,0,0,.07,0h.24a.09.09,0,0,0,.07,0,.11.11,0,0,0,0-.07V79.73a1.16,1.16,0,0,0-.21-.75.75.75,0,0,0-.65-.27"/><path class="cls-1" d="M24.34,81.13h-.28a.32.32,0,0,1-.2,0,.39.39,0,0,1-.06-.26V79.11h.53a.1.1,0,0,0,.1-.1v-.17a.11.11,0,0,0,0-.07.09.09,0,0,0-.07,0H23.8v-.53a.14.14,0,0,0,0-.07l-.05,0h0l-.26,0a.1.1,0,0,0-.08.1v.48h-.48c-.06,0-.1,0-.1.09V79s0,.08.1.09l.48,0v1.71a1,1,0,0,0,0,.33.61.61,0,0,0,.12.21.46.46,0,0,0,.21.1l.29,0h.16l.16,0q.09,0,.09-.09V81.2s0-.07-.1-.07"/><path class="cls-1" d="M26.71,79a.82.82,0,0,0-.34-.23,1.32,1.32,0,0,0-.47-.08,1.05,1.05,0,0,0-.81.31,1.2,1.2,0,0,0-.28.84v.44a1.53,1.53,0,0,0,.1.57.89.89,0,0,0,.25.36.8.8,0,0,0,.35.19,1.52,1.52,0,0,0,.42.06l.46,0c.14,0,.28,0,.42-.06a.15.15,0,0,0,.08,0,.15.15,0,0,0,0-.07v-.17s0-.05,0-.06H26.8l-.41,0-.46,0a.66.66,0,0,1-.51-.19.87.87,0,0,1-.18-.62v-.07h1.65c.06,0,.09,0,.09-.1v-.27a1.41,1.41,0,0,0-.07-.47.88.88,0,0,0-.2-.37m-.16.88H25.24v0a.88.88,0,0,1,.17-.59.77.77,0,0,1,1,0,.94.94,0,0,1,.16.6Z"/><path class="cls-1" d="M28.69,78.71a1,1,0,0,0-.34.06A1.1,1.1,0,0,0,28,79v-.11a.11.11,0,0,0,0-.07.09.09,0,0,0-.06,0h-.23a.15.15,0,0,0-.07,0,.08.08,0,0,0,0,.07v2.51a.1.1,0,0,0,0,.07.09.09,0,0,0,.07,0h.24a.09.09,0,0,0,.07,0,.11.11,0,0,0,0-.07V79.29a1.7,1.7,0,0,1,.34-.16,1.86,1.86,0,0,1,.34,0c.07,0,.1,0,.1-.09v-.2c0-.06,0-.09-.1-.09"/><path class="cls-1" d="M30.59,81.13h-.28a.32.32,0,0,1-.2,0,.39.39,0,0,1-.06-.26V79.11h.53a.1.1,0,0,0,.1-.1v-.17a.11.11,0,0,0,0-.07.09.09,0,0,0-.07,0h-.53v-.53a.09.09,0,0,0,0-.07l0,0h0l-.26,0a.11.11,0,0,0-.09.1v.48h-.47c-.06,0-.1,0-.1.09V79s0,.08.1.09l.47,0v1.71a1,1,0,0,0,.05.33.48.48,0,0,0,.12.21.46.46,0,0,0,.21.1l.29,0h.16l.16,0q.09,0,.09-.09V81.2s0-.07-.1-.07"/><path class="cls-1" d="M32.07,78.71a2.75,2.75,0,0,0-.43,0l-.33,0c-.07,0-.1,0-.1.1V79s0,0,0,.06l.07,0h0l.33,0h.42a.56.56,0,0,1,.41.12.61.61,0,0,1,.12.43v.2h-.37a2.79,2.79,0,0,0-.55,0,1,1,0,0,0-.37.15.6.6,0,0,0-.2.25,1,1,0,0,0-.06.35v.06a.86.86,0,0,0,.07.38.74.74,0,0,0,.17.25.79.79,0,0,0,.26.13,1.53,1.53,0,0,0,.3,0,1,1,0,0,0,.39-.07,1.76,1.76,0,0,0,.37-.17v.11a.1.1,0,0,0,.1.1h.22a.1.1,0,0,0,.1-.1V79.63a1,1,0,0,0-.22-.68,1,1,0,0,0-.74-.24m.53,2.22a1.55,1.55,0,0,1-.33.15,1.26,1.26,0,0,1-.33,0A.55.55,0,0,1,31.6,81a.43.43,0,0,1-.12-.36v-.06a.67.67,0,0,1,0-.22.29.29,0,0,1,.12-.15.56.56,0,0,1,.23-.08,1.79,1.79,0,0,1,.36,0h.37Z"/><path class="cls-1" d="M34.09,78.74h-.24l-.07,0a.1.1,0,0,0,0,.07v2.51a.08.08,0,0,0,0,.07.11.11,0,0,0,.07,0h.24a.11.11,0,0,0,.07,0,.09.09,0,0,0,0-.07V78.84a.11.11,0,0,0,0-.07l-.07,0"/><path class="cls-1" d="M34.1,77.72h-.25a.09.09,0,0,0-.07,0,.11.11,0,0,0,0,.07v.4a.09.09,0,0,0,0,.06.09.09,0,0,0,.07,0h.25a.11.11,0,0,0,.07,0,.09.09,0,0,0,0-.06v-.4a.1.1,0,0,0-.1-.1"/><path class="cls-1" d="M36.13,78.71a1.25,1.25,0,0,0-.4.06,1.39,1.39,0,0,0-.38.17v-.1a.11.11,0,0,0,0-.07.15.15,0,0,0-.07,0H35a.15.15,0,0,0-.07,0,.09.09,0,0,0,0,.07v2.51a.11.11,0,0,0,0,.07.09.09,0,0,0,.07,0h.24a.1.1,0,0,0,.1-.1V79.28a2.44,2.44,0,0,1,.34-.14,1.19,1.19,0,0,1,.32,0,.88.88,0,0,1,.24,0,.4.4,0,0,1,.17.1.54.54,0,0,1,.1.2,1.45,1.45,0,0,1,0,.32v1.61a.11.11,0,0,0,0,.07.09.09,0,0,0,.07,0h.23a.09.09,0,0,0,.07,0,.11.11,0,0,0,0-.07V79.73a1.16,1.16,0,0,0-.2-.75.76.76,0,0,0-.65-.27"/><path class="cls-1" d="M40.68,78.9a.68.68,0,0,0-.26-.15,1,1,0,0,0-.31,0,1.41,1.41,0,0,0-.4.05,1.77,1.77,0,0,0-.42.15.46.46,0,0,0-.21-.16.79.79,0,0,0-.28,0,1.32,1.32,0,0,0-.39.06l-.33.16v-.09a.1.1,0,0,0,0-.07.08.08,0,0,0-.07,0h-.25a.07.07,0,0,0-.06,0,.11.11,0,0,0,0,.07v2.51a.14.14,0,0,0,0,.07.09.09,0,0,0,.07,0H38a.07.07,0,0,0,.06,0,.08.08,0,0,0,0-.07V79.27l.32-.13a.77.77,0,0,1,.29,0h.16a.25.25,0,0,1,.12.08.34.34,0,0,1,.07.16,1.43,1.43,0,0,1,0,.26v1.75a.08.08,0,0,0,0,.07.06.06,0,0,0,.06,0h.26a.07.07,0,0,0,.06,0,.09.09,0,0,0,0-.07V79.6a1.35,1.35,0,0,0,0-.38l.29-.1.29,0a.47.47,0,0,1,.17,0,.28.28,0,0,1,.15.08.35.35,0,0,1,.09.16,1,1,0,0,1,0,.26v1.74a.08.08,0,0,0,0,.07.11.11,0,0,0,.07,0h.24a.1.1,0,0,0,.1-.1V79.61a1.11,1.11,0,0,0-.07-.43.59.59,0,0,0-.16-.28"/><path class="cls-1" d="M43.38,79a.86.86,0,0,0-.33-.23,1.36,1.36,0,0,0-.47-.08,1.07,1.07,0,0,0-.81.31,1.2,1.2,0,0,0-.28.84v.44a1.55,1.55,0,0,0,.09.57,1,1,0,0,0,.25.36.9.9,0,0,0,.36.19,1.4,1.4,0,0,0,.41.06l.46,0c.14,0,.28,0,.42-.06s.07,0,.08,0a.14.14,0,0,0,0-.07v-.17a.08.08,0,0,0,0-.06h-.08l-.42,0-.46,0a.69.69,0,0,1-.51-.19.92.92,0,0,1-.17-.62v-.07h1.64c.07,0,.09,0,.09-.1v-.27a1.73,1.73,0,0,0-.06-.47,1,1,0,0,0-.21-.37m-.16.88h-1.3v0a.88.88,0,0,1,.17-.59.64.64,0,0,1,.49-.18.62.62,0,0,1,.48.17.88.88,0,0,1,.16.6Z"/><path class="cls-1" d="M45.47,78.71a1.25,1.25,0,0,0-.4.06,1.59,1.59,0,0,0-.39.17v-.1a.19.19,0,0,0,0-.07.15.15,0,0,0-.07,0h-.25s0,0-.06,0a.09.09,0,0,0,0,.07v2.51a.11.11,0,0,0,0,.07.09.09,0,0,0,.06,0h.25a.07.07,0,0,0,.06,0,.11.11,0,0,0,0-.07V79.28a3.07,3.07,0,0,1,.34-.14,1.32,1.32,0,0,1,.33,0,.88.88,0,0,1,.24,0,.48.48,0,0,1,.17.1.75.75,0,0,1,.1.2,1.45,1.45,0,0,1,0,.32v1.61a.11.11,0,0,0,0,.07.09.09,0,0,0,.07,0h.23a.09.09,0,0,0,.07,0,.11.11,0,0,0,0-.07V79.73a1.22,1.22,0,0,0-.2-.75.78.78,0,0,0-.65-.27"/><path class="cls-1" d="M48.22,81.13H48a.36.36,0,0,1-.21,0,.39.39,0,0,1-.06-.26V79.11h.53a.1.1,0,0,0,.1-.1v-.17a.11.11,0,0,0,0-.07.09.09,0,0,0-.07,0h-.53v-.53a.14.14,0,0,0,0-.07l0,0h0l-.25,0a.1.1,0,0,0-.09.1v.48h-.48a.08.08,0,0,0-.09.09V79s0,.08.09.09l.48,0v1.71a1,1,0,0,0,0,.33.61.61,0,0,0,.12.21.51.51,0,0,0,.21.1l.3,0h.16l.16,0q.09,0,.09-.09V81.2s0-.07-.11-.07"/><path class="cls-1" d="M51.72,78.13a.44.44,0,0,0-.09-.18.68.68,0,0,0-.12-.12.38.38,0,0,0-.15,0l-.14,0-.14,0a.47.47,0,0,0-.15.06.41.41,0,0,0-.12.11.48.48,0,0,0-.09.19l-.91,3.2v0a.07.07,0,0,0,.08.08h.29a.09.09,0,0,0,.06,0l0,0,.32-1.14h1.27l.32,1.14a.05.05,0,0,0,0,0,.05.05,0,0,0,0,0h.29c.06,0,.08,0,.08-.08v0Zm-1,1.73.44-1.62c0-.06.05-.09.1-.09s.08,0,.1.09l.44,1.62Z"/><path class="cls-1" d="M55,78.74H54.8a.15.15,0,0,0-.07,0,.11.11,0,0,0,0,.07v2.07a3.07,3.07,0,0,1-.34.14,1,1,0,0,1-.32.06.87.87,0,0,1-.25,0,.29.29,0,0,1-.16-.1.55.55,0,0,1-.11-.2,1.42,1.42,0,0,1,0-.31V78.84a.11.11,0,0,0,0-.07.15.15,0,0,0-.07,0h-.23a.15.15,0,0,0-.07,0,.11.11,0,0,0,0,.07v1.62a1.21,1.21,0,0,0,.21.76.77.77,0,0,0,.65.26,1,1,0,0,0,.4-.06,1.72,1.72,0,0,0,.38-.17v.1a.11.11,0,0,0,0,.07.06.06,0,0,0,.06,0H55a.07.07,0,0,0,.06,0,.09.09,0,0,0,0-.07V78.84a.11.11,0,0,0,0-.07.11.11,0,0,0-.06,0"/><path class="cls-1" d="M57.13,81.13h-.28a.34.34,0,0,1-.2,0,.39.39,0,0,1-.06-.26V79.11h.53a.1.1,0,0,0,.1-.1v-.17a.11.11,0,0,0,0-.07.09.09,0,0,0-.07,0h-.53v-.53a.14.14,0,0,0,0-.07l0,0h0l-.25,0a.1.1,0,0,0-.09.1v.48h-.48a.08.08,0,0,0-.09.09V79s0,.08.09.09l.48,0v1.71a1,1,0,0,0,0,.33.61.61,0,0,0,.12.21.46.46,0,0,0,.21.1l.3,0H57l.17,0a.08.08,0,0,0,.08-.09V81.2s0-.07-.1-.07"/><path class="cls-1" d="M59.52,79a1,1,0,0,0-.28-.18,1,1,0,0,0-.36-.06,1.73,1.73,0,0,0-.37,0,1.6,1.6,0,0,0-.39.11v-1a.08.08,0,0,0,0-.07.09.09,0,0,0-.07,0h-.24a.1.1,0,0,0-.1.1v3.5a.11.11,0,0,0,0,.07.09.09,0,0,0,.07,0H58a.07.07,0,0,0,.06,0,.07.07,0,0,0,0-.07V79.22l.18-.06.19,0,.17,0h.14a.56.56,0,0,1,.39.13.76.76,0,0,1,.14.51v1.62a.11.11,0,0,0,0,.07.09.09,0,0,0,.07,0h.23a.09.09,0,0,0,.07,0,.11.11,0,0,0,0-.07V79.73a1.56,1.56,0,0,0-.06-.46.77.77,0,0,0-.18-.32"/><path class="cls-1" d="M62.26,79a.85.85,0,0,0-.35-.24,1.21,1.21,0,0,0-.48-.09,1.16,1.16,0,0,0-.47.09.76.76,0,0,0-.34.24.94.94,0,0,0-.21.38,1.49,1.49,0,0,0-.07.49v.37a1.59,1.59,0,0,0,.07.5,1,1,0,0,0,.21.37.86.86,0,0,0,.34.25,1.36,1.36,0,0,0,.47.08,1.42,1.42,0,0,0,.48-.08,1,1,0,0,0,.35-.25,1,1,0,0,0,.2-.37,1.59,1.59,0,0,0,.07-.5v-.37a1.49,1.49,0,0,0-.07-.49.92.92,0,0,0-.2-.38m-.16,1.24a1.08,1.08,0,0,1-.16.61.61.61,0,0,1-.51.22.56.56,0,0,1-.5-.23,1.07,1.07,0,0,1-.16-.6v-.37a1,1,0,0,1,.16-.6.57.57,0,0,1,.5-.22.58.58,0,0,1,.51.22,1.07,1.07,0,0,1,.16.6Z"/><path class="cls-1" d="M64.22,78.71a1,1,0,0,0-.33.06,1,1,0,0,0-.36.18v-.11a.11.11,0,0,0,0-.07.15.15,0,0,0-.07,0h-.22a.11.11,0,0,0-.07,0,.09.09,0,0,0,0,.07v2.51a.11.11,0,0,0,0,.07.08.08,0,0,0,.07,0h.23a.09.09,0,0,0,.07,0,.11.11,0,0,0,0-.07V79.29a1.76,1.76,0,0,1,.35-.16,1.86,1.86,0,0,1,.33,0c.07,0,.1,0,.1-.09v-.2c0-.06,0-.09-.1-.09"/><path class="cls-1" d="M65.18,78.74h-.24l-.07,0a.1.1,0,0,0,0,.07v2.51a.08.08,0,0,0,0,.07l.07,0h.24a.11.11,0,0,0,.07,0,.09.09,0,0,0,0-.07V78.84a.11.11,0,0,0,0-.07l-.07,0"/><path class="cls-1" d="M65.19,77.72h-.25a.09.09,0,0,0-.07,0,.11.11,0,0,0,0,.07v.4a.09.09,0,0,0,0,.06.09.09,0,0,0,.07,0h.25a.11.11,0,0,0,.07,0,.09.09,0,0,0,0-.06v-.4a.1.1,0,0,0-.1-.1"/><path class="cls-1" d="M67.34,81.13h-.28a.32.32,0,0,1-.2,0,.39.39,0,0,1-.06-.26V79.11h.53a.1.1,0,0,0,.1-.1v-.17a.11.11,0,0,0,0-.07.09.09,0,0,0-.07,0H66.8v-.53a.09.09,0,0,0,0-.07l0,0h0l-.26,0a.11.11,0,0,0-.09.1v.48h-.47c-.06,0-.1,0-.1.09V79s0,.08.1.09l.47,0v1.71a1,1,0,0,0,0,.33.48.48,0,0,0,.12.21.46.46,0,0,0,.21.1l.29,0h.16l.16,0q.09,0,.09-.09V81.2s0-.07-.1-.07"/><path class="cls-1" d="M69.92,78.74h-.28a.05.05,0,0,0,0,0,.1.1,0,0,0,0,0L69,81.06h-.13a.19.19,0,0,1,0-.09l-.58-2.13,0-.06,0,0h-.27a.08.08,0,0,0-.09.09v0l.66,2.25a.52.52,0,0,0,.07.18.29.29,0,0,0,.08.1.31.31,0,0,0,.1,0h.18l0,.2a.73.73,0,0,1-.07.21.45.45,0,0,1-.1.13.3.3,0,0,1-.14.06l-.18,0h-.22l-.22,0h0c-.06,0-.09,0-.09.08v.18s0,0,0,0l.08,0,.19,0h.22a1.28,1.28,0,0,0,.36,0,.65.65,0,0,0,.25-.12.81.81,0,0,0,.17-.23,2.58,2.58,0,0,0,.12-.34L70,78.86s0,0,0,0,0-.09-.08-.09"/><path class="cls-1" d="M8.15,75.15H7.88a.21.21,0,0,0-.11,0,.14.14,0,0,0-.06.12v.37a.12.12,0,0,0,.06.1.15.15,0,0,0,.11,0h.27a.15.15,0,0,0,.11,0,.14.14,0,0,0,.05-.1v-.37a.17.17,0,0,0-.05-.12.21.21,0,0,0-.11,0"/><path class="cls-1" d="M7,75.82a.17.17,0,0,0,.12,0,.13.13,0,0,0,0-.1v-.37a.16.16,0,0,0,0-.12.21.21,0,0,0-.12,0H6.74a.18.18,0,0,0-.11,0,.17.17,0,0,0,0,.12v.37a.14.14,0,0,0,0,.1.14.14,0,0,0,.11,0Z"/><path class="cls-1" d="M10.31,70.52h.3a.21.21,0,0,0,.11,0,.16.16,0,0,0,0-.11V70a.14.14,0,0,0,0-.11.14.14,0,0,0-.11,0h-.3a.17.17,0,0,0-.11,0,.14.14,0,0,0,0,.11v.37a.15.15,0,0,0,0,.11.21.21,0,0,0,.11,0"/><path class="cls-1" d="M11.7,74.34a1.85,1.85,0,0,1,0-.23,2.35,2.35,0,0,1,0-.26c0-.09,0-.18,0-.27V71.51a.12.12,0,0,0,0-.08.13.13,0,0,0-.09-.05,3.58,3.58,0,0,0-.46-.08l-.57,0a1.7,1.7,0,0,0-1.18.39A1.46,1.46,0,0,0,9,72.77v.17a1.72,1.72,0,0,0,.08.59,1.15,1.15,0,0,0,.22.38h-1l-.16,0-.14,0a.13.13,0,0,1-.09-.09v-1.9a.13.13,0,0,0,0-.1.15.15,0,0,0-.09,0H7.39a.18.18,0,0,0-.1,0,.17.17,0,0,0,0,.1v1.81a.17.17,0,0,1-.06.14.25.25,0,0,1-.12.08l-.16,0H3.35A.59.59,0,0,1,3,73.83c-.09,0-.13-.17-.13-.36v-2a.19.19,0,0,0,0-.08.13.13,0,0,0-.09,0l-.18,0-.22,0-.23,0H1.92a2.73,2.73,0,0,0-.72.09,1.67,1.67,0,0,0-.57.27,1.19,1.19,0,0,0-.37.48,1.62,1.62,0,0,0-.13.7V73a1.38,1.38,0,0,0,.35,1,1.33,1.33,0,0,0,1,.35h.07a2.35,2.35,0,0,0,.54-.07.6.6,0,0,0,.36-.22.6.6,0,0,0,.32.31,1.19,1.19,0,0,0,.53.1h3.4a2.27,2.27,0,0,0,.43-.05,1,1,0,0,0,.42-.18.82.82,0,0,0,.4.18,2.68,2.68,0,0,0,.46.05H11l.56,0c.1,0,.15,0,.16-.13m-9.42-.89a.3.3,0,0,1,0,.19.58.58,0,0,1-.15.11.42.42,0,0,1-.2,0l-.21,0H1.54a.78.78,0,0,1-.64-.23,1,1,0,0,1-.19-.65v-.15a1,1,0,0,1,.09-.46A.69.69,0,0,1,1,72a.82.82,0,0,1,.36-.14,2.16,2.16,0,0,1,.46,0H2l.24,0Zm8.86.45-.33,0h-.35a.83.83,0,0,1-.68-.25,1.06,1.06,0,0,1-.22-.73v-.15a1,1,0,0,1,.25-.72,1,1,0,0,1,.72-.24h.33l.28,0Z"/><path class="cls-1" d="M16.11,70.8h.27a.15.15,0,0,0,.11,0,.14.14,0,0,0,.05-.1v-.38a.16.16,0,0,0-.05-.11.14.14,0,0,0-.11,0h-.27a.16.16,0,0,0-.12,0,.15.15,0,0,0,0,.11v.38a.13.13,0,0,0,0,.1.16.16,0,0,0,.12,0"/><path class="cls-1" d="M17.24,70.8h.27a.17.17,0,0,0,.12,0,.13.13,0,0,0,0-.1v-.38a.15.15,0,0,0,0-.11.17.17,0,0,0-.12,0h-.27a.15.15,0,0,0-.11,0,.13.13,0,0,0-.05.11v.38a.11.11,0,0,0,.05.1.15.15,0,0,0,.11,0"/><path class="cls-1" d="M20.65,74.49l.23,0,.16,0c.05,0,.09,0,.11-.09a.36.36,0,0,0,0-.11,1.11,1.11,0,0,0,0-.19,1.55,1.55,0,0,0,0-.22v-4.4a.12.12,0,0,0,0-.09.1.1,0,0,0-.09,0h-.34a.14.14,0,0,0-.13.13v4.23a.33.33,0,0,1-.05.22.68.68,0,0,1-.26,0h-.75l-.16,0a.53.53,0,0,1-.15,0,.2.2,0,0,1-.09-.09V69.43a.12.12,0,0,0,0-.09.11.11,0,0,0-.09,0h-.34a.13.13,0,0,0-.1,0,.12.12,0,0,0,0,.09v4.23a.2.2,0,0,1-.06.14.35.35,0,0,1-.12.07l-.16,0h-.73l-.16,0-.14,0a.13.13,0,0,1-.09-.09v-1.9a.18.18,0,0,0,0-.1.15.15,0,0,0-.09,0h-.32a.13.13,0,0,0-.09,0,.13.13,0,0,0,0,.1v1.82a.24.24,0,0,1-.05.14l-.13.07a.45.45,0,0,1-.16,0H13.64V71.84a.17.17,0,0,0,0-.1.12.12,0,0,0-.08,0h-.34a.13.13,0,0,0-.09,0,.13.13,0,0,0,0,.1v3.07a1.73,1.73,0,0,1,0,.36.44.44,0,0,1-.13.21.61.61,0,0,1-.23.09l-.38,0h-.14c-.08,0-.12,0-.12.1V76a.15.15,0,0,0,0,.08.13.13,0,0,0,.09,0l.18,0h.15a2,2,0,0,0,.65-.09.78.78,0,0,0,.38-.34.92.92,0,0,0,.11-.33,2.63,2.63,0,0,0,0-.41v-.44H16a2.27,2.27,0,0,0,.43-.05.94.94,0,0,0,.42-.18.82.82,0,0,0,.4.18,2.68,2.68,0,0,0,.46.05H18a2.27,2.27,0,0,0,.43-.05,1,1,0,0,0,.42-.18.78.78,0,0,0,.18.11l.22.07.23,0h1.15"/><path class="cls-1" d="M25.82,70.53h.27a.15.15,0,0,0,.11,0,.12.12,0,0,0,.05-.11V70a.12.12,0,0,0-.05-.11.15.15,0,0,0-.11,0h-.27a.15.15,0,0,0-.11,0,.12.12,0,0,0-.05.11v.37a.12.12,0,0,0,.05.11.15.15,0,0,0,.11,0"/><path class="cls-1" d="M24.69,70.53H25a.15.15,0,0,0,.11,0,.14.14,0,0,0,.05-.11V70a.14.14,0,0,0-.05-.11.15.15,0,0,0-.11,0h-.27a.16.16,0,0,0-.12,0,.14.14,0,0,0-.05.11v.37a.14.14,0,0,0,.05.11.16.16,0,0,0,.12,0"/><path class="cls-1" d="M35,74.24a1.6,1.6,0,0,0,.33-1.09v-.36A1.55,1.55,0,0,0,35,71.7a1.39,1.39,0,0,0-1-.38,1.46,1.46,0,0,0-1.07.38,1.51,1.51,0,0,0-.37,1.1v.67a1.23,1.23,0,0,1,0,.2.17.17,0,0,1-.08.12.35.35,0,0,1-.13.08l-.16,0H27.15a.72.72,0,0,1-.35-.08c-.09,0-.13-.17-.13-.36V71.53a.2.2,0,0,0,0-.09.13.13,0,0,0-.09,0l-.18,0-.21,0-.24,0h-.2a2.77,2.77,0,0,0-.73.08,1.67,1.67,0,0,0-.57.27,1.19,1.19,0,0,0-.37.48,1.62,1.62,0,0,0-.13.7V73a1.38,1.38,0,0,0,.35,1,1.34,1.34,0,0,0,1,.35h.06a1.86,1.86,0,0,0,.54-.07.7.7,0,0,0,.36-.21.66.66,0,0,0,.33.31,1.31,1.31,0,0,0,.52.09h4.78a2.19,2.19,0,0,0,.53-.07.67.67,0,0,0,.36-.27,1,1,0,0,0,.47.33,1.8,1.8,0,0,0,.68.11A1.41,1.41,0,0,0,35,74.24m-8.9-.79a.24.24,0,0,1-.06.18.32.32,0,0,1-.14.12,1.29,1.29,0,0,1-.21.06h-.34a.79.79,0,0,1-.64-.23,1,1,0,0,1-.19-.65v-.15a1,1,0,0,1,.09-.46.61.61,0,0,1,.23-.29.73.73,0,0,1,.36-.15,2.16,2.16,0,0,1,.46,0h.19l.25,0Zm7,.09a2,2,0,0,1,0-.38v-.3a1.21,1.21,0,0,1,.2-.74.81.81,0,0,1,.66-.25.72.72,0,0,1,.63.26,1.25,1.25,0,0,1,.19.73v.25a1.14,1.14,0,0,1-.19.73.81.81,0,0,1-.65.22,1.17,1.17,0,0,1-.53-.1.6.6,0,0,1-.28-.42"/><path class="cls-1" d="M44.4,74.35a.21.21,0,0,0,0-.11,1.08,1.08,0,0,0,0-.19c0-.07,0-.14,0-.22v-4.4a.14.14,0,0,0-.13-.13H44a.12.12,0,0,0-.09,0,.13.13,0,0,0,0,.09v4.23c0,.12,0,.19-.05.22a.62.62,0,0,1-.25,0H42.19a.61.61,0,0,0,.19-.2,1.25,1.25,0,0,0,.15-.28,2.07,2.07,0,0,0,.1-.33,2,2,0,0,0,0-.34v-.13a1.58,1.58,0,0,0-.11-.61,1.07,1.07,0,0,0-.32-.42,1.37,1.37,0,0,0-.5-.24,2.47,2.47,0,0,0-.63-.08,1.9,1.9,0,0,0-.41,0,2.71,2.71,0,0,0-.41.09,2.32,2.32,0,0,0-.35.14,1.26,1.26,0,0,0-.28.2.24.24,0,0,0-.12.18v.26s0,0,0,.06l.65,1.66H37.26a.34.34,0,0,1-.15-.06.27.27,0,0,1-.09-.12.61.61,0,0,1,0-.22V69.43a.13.13,0,0,0,0-.1.12.12,0,0,0-.08,0h-.34a.14.14,0,0,0-.14.14v4.2a1.27,1.27,0,0,0,.06.43.64.64,0,0,0,.18.27.67.67,0,0,0,.28.14,1.56,1.56,0,0,0,.39,0h6.61l.22,0,.16,0a.17.17,0,0,0,.11-.09m-2.31-1.58a1.37,1.37,0,0,1-.21.75.88.88,0,0,1-.56.4h-.51L40.1,72.1a1.26,1.26,0,0,1,.54-.22,2.19,2.19,0,0,1,.46,0,1.16,1.16,0,0,1,.72.2.79.79,0,0,1,.27.67Z"/><path class="cls-1" d="M45.79,74.51h.34a.11.11,0,0,0,.09-.05.15.15,0,0,0,0-.09V69.43a.18.18,0,0,0,0-.1.13.13,0,0,0-.09,0h-.34a.13.13,0,0,0-.09,0,.13.13,0,0,0,0,.1v4.94a.11.11,0,0,0,0,.09.11.11,0,0,0,.09.05"/><path class="cls-1" d="M50.92,70.53h.27a.15.15,0,0,0,.11,0,.12.12,0,0,0,.05-.11V70a.12.12,0,0,0-.05-.11.15.15,0,0,0-.11,0h-.27a.15.15,0,0,0-.11,0,.13.13,0,0,0-.06.11v.37a.13.13,0,0,0,.06.11.15.15,0,0,0,.11,0"/><path class="cls-1" d="M49.79,70.53h.27a.15.15,0,0,0,.11,0,.14.14,0,0,0,0-.11V70a.14.14,0,0,0,0-.11.15.15,0,0,0-.11,0h-.27a.16.16,0,0,0-.12,0,.14.14,0,0,0-.05.11v.37a.14.14,0,0,0,.05.11.16.16,0,0,0,.12,0"/><path class="cls-1" d="M55.92,70.84h1s0,0,0-.07v-.11c0-.06,0-.08-.12-.08h-.46a.25.25,0,0,1-.11-.13.52.52,0,0,1-.05-.23c0-.21.13-.32.37-.32h.22c.06,0,.09,0,.09-.08v-.09s0-.07-.08-.09l-.14,0h-.12a.79.79,0,0,0-.49.14.52.52,0,0,0-.16.43.75.75,0,0,0,0,.21.51.51,0,0,0,.09.18h-.11c-.09,0-.13,0-.13.07v.12c0,.06,0,.08.13.08"/><path class="cls-1" d="M59.39,75.82a.15.15,0,0,0,.11,0,.14.14,0,0,0,0-.1v-.37a.14.14,0,0,0-.16-.16h-.27a.18.18,0,0,0-.11,0,.13.13,0,0,0,0,.12v.37a.11.11,0,0,0,0,.1.14.14,0,0,0,.11,0Z"/><path class="cls-1" d="M60.64,75.78a.14.14,0,0,0,0-.1V75.3a.16.16,0,0,0,0-.11.21.21,0,0,0-.11,0h-.27a.28.28,0,0,0-.12,0,.16.16,0,0,0,0,.11v.38a.14.14,0,0,0,0,.1.19.19,0,0,0,.12,0h.27a.15.15,0,0,0,.11,0"/><path class="cls-1" d="M67.79,73.83v-4.4a.12.12,0,0,0-.12-.13h-.34a.13.13,0,0,0-.1,0,.13.13,0,0,0,0,.09v4.23c0,.12,0,.19,0,.21a.44.44,0,0,1-.25,0h-1.1a.56.56,0,0,0-.23.07.5.5,0,0,0-.27.34s0,0,0,.08a.45.45,0,0,0,0,.12s0,.07,0,.11v.08a1.53,1.53,0,0,1-.17.75.69.69,0,0,1-.62.24.71.71,0,0,1-.63-.26,1.43,1.43,0,0,1-.16-.77V74.5h.6l.3,0a1.37,1.37,0,0,0,.25,0,1.25,1.25,0,0,0,.76-.58,2.06,2.06,0,0,0,.24-1v-.11a1.23,1.23,0,0,0-.42-1,1.86,1.86,0,0,0-1.16-.33,4.27,4.27,0,0,0-.52,0,2.19,2.19,0,0,0-.47.08c-.11,0-.17.09-.17.18v2.32H60.61l-.16,0a.66.66,0,0,1-.15,0,.14.14,0,0,1-.08-.09v-1.9a.13.13,0,0,0,0-.1.16.16,0,0,0-.09,0h-.32a.17.17,0,0,0-.1,0,.13.13,0,0,0,0,.1v1.81a.16.16,0,0,1-.05.14.23.23,0,0,1-.12.08.51.51,0,0,1-.17,0H57.14l-.16,0a.53.53,0,0,1-.15,0,.16.16,0,0,1-.09-.09v-1.9a.13.13,0,0,0,0-.1.12.12,0,0,0-.09,0h-.32a.12.12,0,0,0-.09,0,.13.13,0,0,0,0,.1v1.81a.2.2,0,0,1,0,.14.26.26,0,0,1-.13.08.41.41,0,0,1-.16,0H52.25a.72.72,0,0,1-.35-.08c-.09,0-.13-.17-.13-.36v-2a.19.19,0,0,0,0-.08.12.12,0,0,0-.08,0l-.19,0-.21,0-.24,0h-.2a2.77,2.77,0,0,0-.73.08,1.67,1.67,0,0,0-.57.27,1.27,1.27,0,0,0-.37.48,1.62,1.62,0,0,0-.13.7V73a1.4,1.4,0,0,0,.35,1,1.34,1.34,0,0,0,1,.35h.06a2.35,2.35,0,0,0,.54-.07.7.7,0,0,0,.36-.21.71.71,0,0,0,.33.31,1.32,1.32,0,0,0,.52.08h3.4a2.39,2.39,0,0,0,.44,0,1,1,0,0,0,.41-.18.82.82,0,0,0,.41.18,2.45,2.45,0,0,0,.46,0h1.76a2.29,2.29,0,0,0,.43,0,.9.9,0,0,0,.41-.18.9.9,0,0,0,.41.18,2.53,2.53,0,0,0,.46,0h2.32v.24a3,3,0,0,0,.07.63,1.08,1.08,0,0,0,.23.48,1,1,0,0,0,.42.3,1.84,1.84,0,0,0,.67.11,1.21,1.21,0,0,0,1-.39,1.77,1.77,0,0,0,.32-1.09v-.26h1.39l.23,0,.16,0c.06,0,.1,0,.11-.09a.37.37,0,0,0,.05-.11,1.37,1.37,0,0,1,0-.19,1.7,1.7,0,0,1,0-.22m-4.11-1.94.26,0h.31a1.87,1.87,0,0,1,.42,0,.67.67,0,0,1,.51.41,1,1,0,0,1,.07.41v.13a1.18,1.18,0,0,1-.24.79,1,1,0,0,1-.78.27h-.55ZM51.19,73.45a.31.31,0,0,1-.06.19.31.31,0,0,1-.14.11.46.46,0,0,1-.21,0l-.21,0h-.13a.8.8,0,0,1-.64-.23,1,1,0,0,1-.19-.65v-.15a1,1,0,0,1,.09-.46.63.63,0,0,1,.24-.29.76.76,0,0,1,.35-.16,3.15,3.15,0,0,1,.46,0h.19l.25,0Z"/><path class="cls-1" d="M69.1,74.51h.34a.11.11,0,0,0,.09-.05.15.15,0,0,0,0-.09V69.43a.18.18,0,0,0,0-.1.13.13,0,0,0-.09,0H69.1a.13.13,0,0,0-.09,0,.13.13,0,0,0,0,.1v4.94a.11.11,0,0,0,0,.09.11.11,0,0,0,.09.05"/><polygon class="cls-1" points="39.59 39.48 39.59 39.48 37.51 38.51 37.64 38.25 37.38 38.13 37.22 38.38 35.83 37.72 35.11 37.38 34.89 37.28 34.67 37.18 34.65 37.17 33.91 36.82 33.84 36.79 33.68 36.71 33.46 36.61 33.28 36.52 33.02 36.4 31.53 35.7 31.14 35.52 30.93 35.42 29.12 34.57 28.61 34.33 27.83 33.96 27.13 33.64 27 33.57 26.22 33.64 25.95 33.66 27.19 34.26 28.17 34.74 28.85 35.08 30.21 35.74 30.66 35.96 31.53 36.38 32.71 36.96 32.71 36.97 32.92 37.07 33.14 37.18 33.91 37.55 34.12 37.66 34.34 37.76 35.95 38.55 35.98 38.57 36.28 38.63 36.7 38.71 36.89 38.9 36.68 39.23 37.06 39.41 37.18 39.18 39.26 40.2 39.59 39.48"/><polygon class="cls-1" points="34.63 24.99 35.49 24.19 35.83 23.4 35.93 23.16 35.83 23.15 35.63 23.12 35.27 23.07 34.41 24.99 34.44 25.17 34.63 24.99"/><polygon class="cls-1" points="34.15 36.28 34.53 36.1 34.53 34.76 34.53 33.75 34.53 33.63 34.53 33.58 34.53 32.9 34.53 31.56 34.53 30.92 34.53 29.96 34.53 29.5 34.53 29.05 33.97 28.55 33.87 28.55 33.28 29.11 33.28 29.35 33.28 30.66 33.28 30.92 33.28 32.14 33.28 33.51 33.28 33.63 33.28 34.15 33.28 34.33 33.28 34.79 33.28 35.91 33.28 36.1 33.91 36.4 34.15 36.28"/><polygon class="cls-1" points="30.7 31.02 30.8 30.92 31.53 30.24 32.11 29.69 32.75 29.09 33.28 28.59 33.28 28.56 32.71 28.57 31.73 28.59 31.53 28.59 31.29 28.6 29.99 29.79 29.43 30.31 29.28 30.92 28.87 32.68 28.86 32.75 28.91 32.7 30.7 31.02"/><polygon class="cls-1" points="35.81 24.42 35.48 24.73 35.13 25.04 34.51 25.62 34.54 25.82 34.86 25.69 35.11 25.59 35.36 25.49 35.83 25.29 37.53 24.58 39.11 23.09 37.65 22.73 35.83 24.41 35.81 24.42"/><polygon class="cls-1" points="37.24 25.11 36.75 25.32 35.83 25.7 35.15 25.99 34.9 26.09 34.65 26.19 34.51 26.25 34.59 26.33 34.67 26.39 34.77 26.39 34.98 26.39 35.62 26.38 35.83 26.38 35.91 26.38 36.19 26.37 37.9 26.35 38.15 26.34 38.96 26.03 40.99 25.24 39.84 24.54 39.77 24.5 39.34 24.24 37.74 24.91 37.24 25.11"/><polygon class="cls-1" points="33.35 25.26 33.4 24.98 32.62 23.26 31.96 23.35 32.44 24.47 33.35 25.26"/><polygon class="cls-1" points="40.28 26.69 38.59 26.72 38.22 26.72 37.68 26.73 37.49 26.73 37.13 26.74 35.83 26.76 35.78 26.76 35.49 26.76 35.21 26.77 35.11 26.77 35.16 26.81 35.31 26.94 35.45 27.06 35.72 27.29 35.83 27.38 35.88 27.43 36.04 27.57 36.33 27.82 36.7 28.13 37.84 28.12 39.84 28.09 41.71 28.06 40.8 27.19 40.28 26.69"/><polygon class="cls-1" points="30.98 28.22 31.13 28.22 31.42 28.21 31.53 28.21 31.7 28.21 32.91 28.19 32.06 27.87 31.87 27.8 31.67 27.72 31.53 27.67 29.34 26.85 28.3 26.86 28.22 26.87 27.83 26.87 26.23 28.3 29.11 28.25 30.98 28.22"/><polygon class="cls-1" points="29.41 26.47 29.9 26.65 30.38 26.84 31.53 27.27 31.98 27.44 32.18 27.51 32.38 27.58 33.09 27.86 33.23 27.91 33.12 27.81 32.61 27.37 32.47 27.25 32.33 27.12 31.98 26.81 31.76 26.63 31.55 26.44 31.53 26.42 30.17 25.23 27.79 24.24 27.05 24.69 26.14 25.23 27.7 25.82 29.41 26.47"/><polygon class="cls-1" points="33.86 25.7 33.87 25.71 33.96 25.78 34.01 25.82 34.02 25.83 34.03 25.83 34.16 25.83 34.14 25.72 34.14 25.7 34.13 25.62 34.1 25.48 34.07 25.28 34.01 24.94 33.97 24.65 33.83 24.65 33.79 24.93 33.73 25.27 33.69 25.55 33.73 25.58 33.86 25.7"/><path class="cls-1" d="M30.82,25.29l.45.4.26.22.59.52.21.19.21.18.07.06.14.13.14.12.39.34h0l.25.21h0l.1.08.06.06.16.14,0,0,.06.06h0l.06.05h0l0,0,.08.08,0,0,.1.08.21.18.53.47.77.67.79.7.17.14.23.2.22.2,1,.86.72.63.2.17-.06-.24,0-.17-.34-1.25-.2-.76-.33-.27L38,29.77l-.74-.63-.73-.62-.21-.19-.22-.19-.08-.06-.22-.2-.19-.15-.16-.14-.16-.14-.14-.13L35,27.2l-.14-.13L34.74,27l-.15-.13-.05,0-.1-.09-.12-.1-.08-.07-.12-.1h0l0,0h0L34,26.28h0l-.07-.06h0l-.08-.07-.06-.06h0L33.66,26,33.58,26v0l-.12-.1-.17-.14-.51-.44L32.44,25l-.32-.28L32,24.58l-.45-.39L30,22.88l-1.45.42,1.83,1.6Z"/><polygon class="cls-1" points="32.7 37.38 32.42 37.52 31.53 37.93 30.59 38.37 30.43 38.13 30.18 38.26 30.3 38.51 28.23 39.48 28.56 40.2 30.64 39.18 30.76 39.41 31.14 39.22 30.93 38.89 31.11 38.71 31.53 38.63 31.84 38.56 31.86 38.55 33.48 37.76 32.7 37.38"/><polygon class="cls-1" points="35.11 36.96 35.83 36.61 37.06 36.01 38.55 35.28 41.86 33.66 41.6 33.63 40.81 33.58 40.68 33.63 38.26 34.77 36.36 35.66 35.83 35.91 34.53 36.52 34.35 36.61 34.53 36.69 35.11 36.96"/><path class="cls-1" d="M21.52,30.32H17.43c0,.38,0,.77,0,1.16a16.49,16.49,0,0,0,.23,2.73h4.15a12.28,12.28,0,0,1-.31-2.73c0-.39,0-.78.06-1.16"/><path class="cls-1" d="M51.16,31.48a17.74,17.74,0,0,1-.22,2.73h5.48a24.58,24.58,0,0,0,.19-3c0-.3,0-.61,0-.91H51.12c0,.39,0,.77,0,1.16"/><path class="cls-1" d="M10.76,30.32c0,.3,0,.6,0,.91a24.58,24.58,0,0,0,.18,3h5.84a17.73,17.73,0,0,1-.21-2.73c0-.39,0-.78,0-1.16Z"/><path class="cls-1" d="M46.09,34.21h4a16.49,16.49,0,0,0,.22-2.73c0-.39,0-.78,0-1.16H46.34c0,.38.06.77.06,1.16a12.28,12.28,0,0,1-.31,2.73"/><path class="cls-1" d="M65.26,34.21V30.32H58.88c0,.3,0,.6,0,.91a26.92,26.92,0,0,1-.17,3Z"/><path class="cls-1" d="M8.45,31.23c0-.31,0-.61,0-.91H1.79v3.89H8.62a26.92,26.92,0,0,1-.17-3"/><path class="cls-1" d="M17.15,27a17.31,17.31,0,0,1,2.33-5.12l-5.35-2.63a22.56,22.56,0,0,0-2.34,5.12Z"/><path class="cls-1" d="M20.24,22.22a16.23,16.23,0,0,0-2.32,5.12l3.76,1.85A12.41,12.41,0,0,1,23.94,24Z"/><path class="cls-1" d="M50.27,37a17,17,0,0,1-2.63,5l4.86,2.39a22.54,22.54,0,0,0,2.63-5Z"/><path class="cls-1" d="M56.92,41.05a24.13,24.13,0,0,1-2.34,4.3l11,5.42,2.47-5L57.19,40.38c-.08.22-.18.45-.27.67"/><path class="cls-1" d="M10.43,21.41a26,26,0,0,1,1.63-3.2L5.17,14.82l-2.48,5,7,3.46c.21-.65.45-1.28.71-1.91"/><path class="cls-1" d="M46.88,41.57a16.7,16.7,0,0,0,2.64-5l-3.59-1.77a12.45,12.45,0,0,1-2.71,4.94Z"/><path class="cls-1" d="M40.51,47.46l2.59,4.21,4.2-2.58-2.56-4.16a17,17,0,0,1-4.23,2.53"/><path class="cls-1" d="M40.07,46.73a16.12,16.12,0,0,0,4.23-2.52l-2.1-3.42A12.28,12.28,0,0,1,38,43.28Z"/><path class="cls-1" d="M26.78,15.68,23.93,11l-4.2,2.58,2.89,4.71a17.33,17.33,0,0,1,4.16-2.64"/><path class="cls-1" d="M27.22,16.4A16.27,16.27,0,0,0,23.06,19l2.17,3.53a12.55,12.55,0,0,1,4.13-2.69Z"/><path class="cls-1" d="M31.08,56.33V62.5H36V56.35c-.76.07-1.53.11-2.3.11s-1.74-.05-2.6-.13"/><path class="cls-1" d="M36,19.19v-4A16.64,16.64,0,0,0,33.86,15a16,16,0,0,0-2.78.23v4.1A12.15,12.15,0,0,1,33.93,19a12.51,12.51,0,0,1,2,.17"/><path class="cls-1" d="M31.08,48.56V54a22.41,22.41,0,0,0,2.6.15c.77,0,1.54,0,2.3-.11V48.66a18.7,18.7,0,0,1-2.12.12,17.09,17.09,0,0,1-2.78-.22"/><path class="cls-1" d="M31.08,43.61v4.11a17.1,17.1,0,0,0,2.78.23A16.65,16.65,0,0,0,36,47.81v-4a11.58,11.58,0,0,1-2,.18,12.15,12.15,0,0,1-2.85-.34"/><path class="cls-1" d="M36,14.31V8.41c-.76-.07-1.53-.11-2.3-.11a24.87,24.87,0,0,0-2.6.14v6a17.1,17.1,0,0,1,2.78-.23,18.7,18.7,0,0,1,2.12.13"/><path class="cls-1" d="M36,6.11V0h-4.9V6.14A24.87,24.87,0,0,1,33.68,6c.77,0,1.54,0,2.3.11"/><path class="cls-1" d="M43.77,18.36A16.69,16.69,0,0,0,39.46,16l-2.07,3.49a12.4,12.4,0,0,1,4.35,2.27Z"/><path class="cls-1" d="M25.08,40.25l-2.14,3.6a16.26,16.26,0,0,0,4.12,2.67L29.15,43a12.48,12.48,0,0,1-4.07-2.74"/><path class="cls-1" d="M19.65,49.4A23.27,23.27,0,0,0,23.82,52l2.81-4.73a17,17,0,0,1-4.12-2.66Z"/><path class="cls-1" d="M48.32,10.7l3-5.09-4.22-2.5-3,5.15.42.19a25.29,25.29,0,0,1,3.83,2.25"/><path class="cls-1" d="M15.22,56.85l4.22,2.5,3.21-5.41a24.76,24.76,0,0,1-4.18-2.56Z"/><path class="cls-1" d="M47.14,12.68a22.76,22.76,0,0,0-4.25-2.45l-3,5.06a17,17,0,0,1,4.31,2.35Z"/><path class="cls-1" d="M44.47,24.83l3-2.56a18.62,18.62,0,0,0-1.2-1.49L45.59,20l-3,2.51a12.56,12.56,0,0,1,1.87,2.29"/><path class="cls-1" d="M46.23,19.49c.24.23.47.48.7.73a17.39,17.39,0,0,1,1.21,1.51l3.8-3.19L50,16.28Z"/><path class="cls-1" d="M50.6,26.92l5.12-2.25a29.59,29.59,0,0,0-1.28-3.25l-5.1,2.24a22.17,22.17,0,0,1,1.26,3.26"/><path class="cls-1" d="M18.43,37.17A26.8,26.8,0,0,0,20,40.31l3.71-1.63a12.5,12.5,0,0,1-1.6-3.13Z"/><path class="cls-1" d="M49.82,27.26A20,20,0,0,0,48.57,24l-3.68,1.61a12,12,0,0,1,1.21,3.28Z"/><path class="cls-1" d="M2.3,44.24l1.36,3.23,8.23-3.6c-.5-1-1-1.86-1.54-3.16Z"/><path class="cls-1" d="M57.82,23.76,68,19.35l-1.49-3.2-9.93,4.36a3.12,3.12,0,0,1,.21.44c.31.73.64,1.6,1.07,2.81"/><path class="cls-1" d="M17.66,37.51l-5.21,2.28c.57,1.3,1,2.18,1.56,3.15l5.23-2.29a28.53,28.53,0,0,1-1.58-3.14"/></g></g></svg>